<svg viewBox="0 0 918 360" fill="none" xmlns="http://www.w3.org/2000/svg">
<g filter="url(#filter0_d_627_83)">
<mask id="path-1-outside-1_627_83" maskUnits="userSpaceOnUse" x="440.983" y="15" width="60" height="113" fill="black">
<rect fill="white" x="440.983" y="15" width="60" height="113"/>
<path d="M463.62 18.872H481.748L477.876 51.432H497.588L495.828 65.688H476.116L468.9 125H450.772L457.988 65.688H444.964L446.724 51.432H459.748L463.62 18.872Z"/>
</mask>
<path d="M463.62 18.872H481.748L477.876 51.432H497.588L495.828 65.688H476.116L468.9 125H450.772L457.988 65.688H444.964L446.724 51.432H459.748L463.62 18.872Z" fill="url(#paint0_linear_627_83)"/>
<path d="M463.62 18.872V15.872H460.956L460.641 18.5177L463.62 18.872ZM481.748 18.872L484.727 19.2263L485.126 15.872H481.748V18.872ZM477.876 51.432L474.897 51.0777L474.498 54.432H477.876V51.432ZM497.588 51.432L500.566 51.7996L500.981 48.432H497.588V51.432ZM495.828 65.688V68.688H498.481L498.806 66.0556L495.828 65.688ZM476.116 65.688V62.688H473.459L473.138 65.3257L476.116 65.688ZM468.9 125V128H471.557L471.878 125.362L468.9 125ZM450.772 125L447.794 124.638L447.385 128H450.772V125ZM457.988 65.688L460.966 66.0503L461.375 62.688H457.988V65.688ZM444.964 65.688L441.987 65.3204L441.571 68.688H444.964V65.688ZM446.724 51.432V48.432H444.072L443.747 51.0644L446.724 51.432ZM459.748 51.432V54.432H462.413L462.727 51.7863L459.748 51.432ZM463.62 21.872H481.748V15.872H463.62V21.872ZM478.769 18.5177L474.897 51.0777L480.855 51.7863L484.727 19.2263L478.769 18.5177ZM477.876 54.432H497.588V48.432H477.876V54.432ZM494.611 51.0644L492.851 65.3204L498.806 66.0556L500.566 51.7996L494.611 51.0644ZM495.828 62.688H476.116V68.688H495.828V62.688ZM473.138 65.3257L465.922 124.638L471.878 125.362L479.094 66.0503L473.138 65.3257ZM468.9 122H450.772V128H468.9V122ZM453.75 125.362L460.966 66.0503L455.01 65.3257L447.794 124.638L453.75 125.362ZM457.988 62.688H444.964V68.688H457.988V62.688ZM447.942 66.0556L449.702 51.7996L443.747 51.0644L441.987 65.3204L447.942 66.0556ZM446.724 54.432H459.748V48.432H446.724V54.432ZM462.727 51.7863L466.599 19.2263L460.641 18.5177L456.769 51.0777L462.727 51.7863Z" fill="black" mask="url(#path-1-outside-1_627_83)"/>
</g>
<g filter="url(#filter1_d_627_83)">
<mask id="path-3-outside-2_627_83" maskUnits="userSpaceOnUse" x="160.983" y="38" width="539" height="116" fill="black">
<rect fill="white" x="160.983" y="38" width="539" height="116"/>
<path d="M186.868 129.28C181.834 129.28 177.439 128.213 173.684 126.08C169.93 123.861 167.242 120.448 165.62 115.84C164.084 111.232 164.084 105.301 165.62 98.048C167.924 87.2107 172.191 79.1893 178.42 73.984C184.65 68.6933 192.287 66.048 201.332 66.048C208.159 66.048 213.62 67.584 217.716 70.656L223.86 41.728H241.14L222.836 128H207.988L208.116 122.368C204.959 124.672 201.674 126.421 198.26 127.616C194.932 128.725 191.135 129.28 186.868 129.28ZM194.292 116.608C199.668 116.608 204.618 114.773 209.14 111.104L214.9 83.456C212.17 80.2987 208.244 78.72 203.124 78.72C198.09 78.72 193.866 80.2987 190.452 83.456C187.039 86.528 184.607 91.4773 183.156 98.304C181.791 104.789 181.962 109.483 183.668 112.384C185.375 115.2 188.916 116.608 194.292 116.608ZM251.819 128L240.683 67.328H258.091L263.979 110.592L288.427 67.328H306.987L270.379 128H251.819ZM320.438 129.28C315.233 129.28 310.71 128.341 306.87 126.464C303.116 124.587 300.428 121.557 298.806 117.376C297.27 113.109 297.228 107.52 298.678 100.608C300.214 93.3547 302.774 87.168 306.358 82.048C309.942 76.928 314.252 73.0027 319.286 70.272C324.321 67.456 329.697 66.048 335.414 66.048C338.828 66.048 341.772 66.432 344.246 67.2C346.721 67.968 349.025 69.3333 351.158 71.296L351.926 67.328H369.206L356.406 128H341.558L341.686 122.368C338.529 124.672 335.244 126.421 331.83 127.616C328.502 128.725 324.705 129.28 320.438 129.28ZM327.862 116.608C333.238 116.608 338.188 114.773 342.71 111.104L348.342 84.096C345.697 80.512 341.985 78.72 337.206 78.72C326.369 78.72 319.372 86.016 316.214 100.608C314.849 106.837 315.062 111.061 316.854 113.28C318.732 115.499 322.401 116.608 327.862 116.608ZM367.263 128L380.063 67.328H396.063L395.551 73.088C398.453 71.2107 401.909 69.5893 405.919 68.224C410.015 66.7733 414.154 66.048 418.335 66.048C433.695 66.048 439.754 73.728 436.511 89.088L428.319 128H411.039L419.103 89.984C419.957 85.888 419.786 82.9867 418.591 81.28C417.397 79.5733 414.666 78.72 410.399 78.72C407.242 78.72 404.213 79.3173 401.311 80.512C398.41 81.7067 395.85 83.2 393.631 84.992L384.543 128H367.263ZM512.203 129.28C506.998 129.28 502.475 128.341 498.635 126.464C494.881 124.587 492.193 121.557 490.571 117.376C489.035 113.109 488.993 107.52 490.443 100.608C491.979 93.3547 494.539 87.168 498.123 82.048C501.707 76.928 506.017 73.0027 511.051 70.272C516.086 67.456 521.462 66.048 527.179 66.048C530.593 66.048 533.537 66.432 536.011 67.2C538.486 67.968 540.79 69.3333 542.923 71.296L543.691 67.328H560.971L548.171 128H533.323L533.451 122.368C530.294 124.672 527.009 126.421 523.595 127.616C520.267 128.725 516.47 129.28 512.203 129.28ZM519.627 116.608C525.003 116.608 529.953 114.773 534.475 111.104L540.107 84.096C537.462 80.512 533.75 78.72 528.971 78.72C518.134 78.72 511.137 86.016 507.979 100.608C506.614 106.837 506.827 111.061 508.619 113.28C510.497 115.499 514.166 116.608 519.627 116.608ZM580.02 150.528C578.655 150.528 576.906 150.443 574.772 150.272C572.724 150.187 570.676 150.016 568.628 149.76C566.666 149.589 565.087 149.376 563.892 149.12L566.708 135.936C568.415 136.448 570.591 136.832 573.236 137.088C575.882 137.429 578.143 137.6 580.02 137.6C586.25 137.6 591.412 136.789 595.508 135.168C599.604 133.547 602.079 130.688 602.932 126.592L603.572 123.392C598.367 126.464 592.266 128 585.268 128C579.978 128 575.37 127.061 571.444 125.184C567.519 123.221 564.703 120.149 562.996 115.968C561.29 111.701 561.119 106.112 562.484 99.2C564.703 88.2773 568.884 80.0427 575.028 74.496C581.172 68.864 588.938 66.048 598.324 66.048C602.591 66.048 606.004 66.6453 608.564 67.84C611.21 69.0347 613.599 70.7413 615.732 72.96L617.908 67.328H632.756L620.852 123.776C619.743 128.896 617.61 133.461 614.452 137.472C611.38 141.568 607.028 144.768 601.396 147.072C595.764 149.376 588.639 150.528 580.02 150.528ZM591.668 115.328C594.57 115.328 597.215 114.944 599.604 114.176C601.994 113.323 604.212 112.171 606.26 110.72L611.892 84.224C610.356 82.3467 608.607 80.9813 606.644 80.128C604.767 79.1893 602.463 78.72 599.732 78.72C594.186 78.72 589.876 80.512 586.804 84.096C583.818 87.5947 581.599 92.5867 580.148 99.072C578.783 105.216 578.954 109.483 580.66 111.872C582.367 114.176 586.036 115.328 591.668 115.328ZM662.045 129.28C655.475 129.28 649.843 128.128 645.149 125.824C640.541 123.52 637.256 120.021 635.293 115.328C633.416 110.549 633.203 104.619 634.653 97.536C636.019 91.0507 638.152 85.4613 641.053 80.768C643.955 76.0747 647.923 72.448 652.957 69.888C658.077 67.328 664.477 66.048 672.157 66.048C681.544 66.048 688.2 68.5227 692.125 73.472C696.136 78.336 697.288 84.736 695.581 92.672L693.277 103.68H649.373C649.288 108.544 650.568 111.872 653.213 113.664C655.944 115.456 661.021 116.352 668.445 116.352C671.688 116.352 675.059 116.053 678.557 115.456C682.056 114.859 685.085 114.091 687.645 113.152L685.085 125.44C682.013 126.72 678.515 127.659 674.589 128.256C670.664 128.939 666.483 129.28 662.045 129.28ZM651.677 93.056H680.477L681.117 89.728C681.885 86.2293 681.459 83.4987 679.837 81.536C678.216 79.488 674.973 78.464 670.109 78.464C664.392 78.464 660.168 79.616 657.437 81.92C654.707 84.224 652.787 87.936 651.677 93.056Z"/>
</mask>
<path d="M186.868 129.28C181.834 129.28 177.439 128.213 173.684 126.08C169.93 123.861 167.242 120.448 165.62 115.84C164.084 111.232 164.084 105.301 165.62 98.048C167.924 87.2107 172.191 79.1893 178.42 73.984C184.65 68.6933 192.287 66.048 201.332 66.048C208.159 66.048 213.62 67.584 217.716 70.656L223.86 41.728H241.14L222.836 128H207.988L208.116 122.368C204.959 124.672 201.674 126.421 198.26 127.616C194.932 128.725 191.135 129.28 186.868 129.28ZM194.292 116.608C199.668 116.608 204.618 114.773 209.14 111.104L214.9 83.456C212.17 80.2987 208.244 78.72 203.124 78.72C198.09 78.72 193.866 80.2987 190.452 83.456C187.039 86.528 184.607 91.4773 183.156 98.304C181.791 104.789 181.962 109.483 183.668 112.384C185.375 115.2 188.916 116.608 194.292 116.608ZM251.819 128L240.683 67.328H258.091L263.979 110.592L288.427 67.328H306.987L270.379 128H251.819ZM320.438 129.28C315.233 129.28 310.71 128.341 306.87 126.464C303.116 124.587 300.428 121.557 298.806 117.376C297.27 113.109 297.228 107.52 298.678 100.608C300.214 93.3547 302.774 87.168 306.358 82.048C309.942 76.928 314.252 73.0027 319.286 70.272C324.321 67.456 329.697 66.048 335.414 66.048C338.828 66.048 341.772 66.432 344.246 67.2C346.721 67.968 349.025 69.3333 351.158 71.296L351.926 67.328H369.206L356.406 128H341.558L341.686 122.368C338.529 124.672 335.244 126.421 331.83 127.616C328.502 128.725 324.705 129.28 320.438 129.28ZM327.862 116.608C333.238 116.608 338.188 114.773 342.71 111.104L348.342 84.096C345.697 80.512 341.985 78.72 337.206 78.72C326.369 78.72 319.372 86.016 316.214 100.608C314.849 106.837 315.062 111.061 316.854 113.28C318.732 115.499 322.401 116.608 327.862 116.608ZM367.263 128L380.063 67.328H396.063L395.551 73.088C398.453 71.2107 401.909 69.5893 405.919 68.224C410.015 66.7733 414.154 66.048 418.335 66.048C433.695 66.048 439.754 73.728 436.511 89.088L428.319 128H411.039L419.103 89.984C419.957 85.888 419.786 82.9867 418.591 81.28C417.397 79.5733 414.666 78.72 410.399 78.72C407.242 78.72 404.213 79.3173 401.311 80.512C398.41 81.7067 395.85 83.2 393.631 84.992L384.543 128H367.263ZM512.203 129.28C506.998 129.28 502.475 128.341 498.635 126.464C494.881 124.587 492.193 121.557 490.571 117.376C489.035 113.109 488.993 107.52 490.443 100.608C491.979 93.3547 494.539 87.168 498.123 82.048C501.707 76.928 506.017 73.0027 511.051 70.272C516.086 67.456 521.462 66.048 527.179 66.048C530.593 66.048 533.537 66.432 536.011 67.2C538.486 67.968 540.79 69.3333 542.923 71.296L543.691 67.328H560.971L548.171 128H533.323L533.451 122.368C530.294 124.672 527.009 126.421 523.595 127.616C520.267 128.725 516.47 129.28 512.203 129.28ZM519.627 116.608C525.003 116.608 529.953 114.773 534.475 111.104L540.107 84.096C537.462 80.512 533.75 78.72 528.971 78.72C518.134 78.72 511.137 86.016 507.979 100.608C506.614 106.837 506.827 111.061 508.619 113.28C510.497 115.499 514.166 116.608 519.627 116.608ZM580.02 150.528C578.655 150.528 576.906 150.443 574.772 150.272C572.724 150.187 570.676 150.016 568.628 149.76C566.666 149.589 565.087 149.376 563.892 149.12L566.708 135.936C568.415 136.448 570.591 136.832 573.236 137.088C575.882 137.429 578.143 137.6 580.02 137.6C586.25 137.6 591.412 136.789 595.508 135.168C599.604 133.547 602.079 130.688 602.932 126.592L603.572 123.392C598.367 126.464 592.266 128 585.268 128C579.978 128 575.37 127.061 571.444 125.184C567.519 123.221 564.703 120.149 562.996 115.968C561.29 111.701 561.119 106.112 562.484 99.2C564.703 88.2773 568.884 80.0427 575.028 74.496C581.172 68.864 588.938 66.048 598.324 66.048C602.591 66.048 606.004 66.6453 608.564 67.84C611.21 69.0347 613.599 70.7413 615.732 72.96L617.908 67.328H632.756L620.852 123.776C619.743 128.896 617.61 133.461 614.452 137.472C611.38 141.568 607.028 144.768 601.396 147.072C595.764 149.376 588.639 150.528 580.02 150.528ZM591.668 115.328C594.57 115.328 597.215 114.944 599.604 114.176C601.994 113.323 604.212 112.171 606.26 110.72L611.892 84.224C610.356 82.3467 608.607 80.9813 606.644 80.128C604.767 79.1893 602.463 78.72 599.732 78.72C594.186 78.72 589.876 80.512 586.804 84.096C583.818 87.5947 581.599 92.5867 580.148 99.072C578.783 105.216 578.954 109.483 580.66 111.872C582.367 114.176 586.036 115.328 591.668 115.328ZM662.045 129.28C655.475 129.28 649.843 128.128 645.149 125.824C640.541 123.52 637.256 120.021 635.293 115.328C633.416 110.549 633.203 104.619 634.653 97.536C636.019 91.0507 638.152 85.4613 641.053 80.768C643.955 76.0747 647.923 72.448 652.957 69.888C658.077 67.328 664.477 66.048 672.157 66.048C681.544 66.048 688.2 68.5227 692.125 73.472C696.136 78.336 697.288 84.736 695.581 92.672L693.277 103.68H649.373C649.288 108.544 650.568 111.872 653.213 113.664C655.944 115.456 661.021 116.352 668.445 116.352C671.688 116.352 675.059 116.053 678.557 115.456C682.056 114.859 685.085 114.091 687.645 113.152L685.085 125.44C682.013 126.72 678.515 127.659 674.589 128.256C670.664 128.939 666.483 129.28 662.045 129.28ZM651.677 93.056H680.477L681.117 89.728C681.885 86.2293 681.459 83.4987 679.837 81.536C678.216 79.488 674.973 78.464 670.109 78.464C664.392 78.464 660.168 79.616 657.437 81.92C654.707 84.224 652.787 87.936 651.677 93.056Z" fill="url(#paint1_linear_627_83)"/>
<path d="M173.684 126.08L172.158 128.663L172.18 128.676L172.202 128.688L173.684 126.08ZM165.62 115.84L162.774 116.789L162.782 116.812L162.79 116.836L165.62 115.84ZM165.62 98.048L162.686 97.4241L162.685 97.4265L165.62 98.048ZM178.42 73.984L180.344 76.2861L180.353 76.2784L180.362 76.2706L178.42 73.984ZM217.716 70.656L215.916 73.056L219.675 75.8749L220.651 71.2793L217.716 70.656ZM223.86 41.728V38.728H221.431L220.926 41.1047L223.86 41.728ZM241.14 41.728L244.075 42.3506L244.844 38.728H241.14V41.728ZM222.836 128V131H225.267L225.771 128.623L222.836 128ZM207.988 128L204.989 127.932L204.919 131H207.988V128ZM208.116 122.368L211.116 122.436L211.254 116.365L206.348 119.945L208.116 122.368ZM198.26 127.616L199.209 130.462L199.23 130.455L199.251 130.448L198.26 127.616ZM209.14 111.104L211.031 113.434L211.86 112.761L212.077 111.716L209.14 111.104ZM214.9 83.456L217.837 84.0679L218.14 82.6156L217.169 81.4935L214.9 83.456ZM190.452 83.456L192.459 85.6859L192.475 85.6722L192.49 85.6583L190.452 83.456ZM183.156 98.304L180.222 97.6804L180.221 97.686L183.156 98.304ZM183.668 112.384L181.083 113.905L181.093 113.922L181.103 113.939L183.668 112.384ZM186.868 126.28C182.266 126.28 178.399 125.309 175.166 123.472L172.202 128.688C176.479 131.118 181.401 132.28 186.868 132.28V126.28ZM175.211 123.497C172.137 121.681 169.867 118.872 168.45 114.844L162.79 116.836C164.616 122.024 167.722 126.042 172.158 128.663L175.211 123.497ZM168.466 114.891C167.166 110.989 167.076 105.654 168.555 98.6695L162.685 97.4265C161.093 104.949 161.003 111.475 162.774 116.789L168.466 114.891ZM168.555 98.6719C170.77 88.254 174.789 80.9276 180.344 76.2861L176.497 71.6819C169.593 77.4511 165.079 86.1673 162.686 97.4241L168.555 98.6719ZM180.362 76.2706C185.991 71.4905 192.917 69.048 201.332 69.048V63.048C191.657 63.048 183.309 65.8961 176.478 71.6974L180.362 76.2706ZM201.332 69.048C207.725 69.048 212.489 70.4852 215.916 73.056L219.516 68.256C214.752 64.6828 208.593 63.048 201.332 63.048V69.048ZM220.651 71.2793L226.795 42.3513L220.926 41.1047L214.782 70.0327L220.651 71.2793ZM223.86 44.728H241.14V38.728H223.86V44.728ZM238.206 41.1054L219.902 127.377L225.771 128.623L244.075 42.3506L238.206 41.1054ZM222.836 125H207.988V131H222.836V125ZM210.988 128.068L211.116 122.436L205.117 122.3L204.989 127.932L210.988 128.068ZM206.348 119.945C203.409 122.089 200.383 123.694 197.269 124.784L199.251 130.448C202.964 129.148 206.509 127.255 209.885 124.791L206.348 119.945ZM197.312 124.77C194.348 125.758 190.88 126.28 186.868 126.28V132.28C191.39 132.28 195.517 131.693 199.209 130.462L197.312 124.77ZM194.292 119.608C200.416 119.608 206.021 117.498 211.031 113.434L207.25 108.774C203.214 112.049 198.921 113.608 194.292 113.608V119.608ZM212.077 111.716L217.837 84.0679L211.963 82.8441L206.203 110.492L212.077 111.716ZM217.169 81.4935C213.742 77.5306 208.901 75.72 203.124 75.72V81.72C207.588 81.72 210.597 83.0667 212.631 85.4185L217.169 81.4935ZM203.124 75.72C197.403 75.72 192.431 77.539 188.415 81.2537L192.49 85.6583C195.3 83.0583 198.777 81.72 203.124 81.72V75.72ZM188.446 81.2261C184.373 84.891 181.74 90.5374 180.222 97.6804L186.091 98.9276C187.474 92.4173 189.705 88.165 192.459 85.6859L188.446 81.2261ZM180.221 97.686C178.83 104.291 178.768 109.971 181.083 113.905L186.254 110.863C185.155 108.995 184.752 105.288 186.092 98.922L180.221 97.686ZM181.103 113.939C183.634 118.116 188.557 119.608 194.292 119.608V113.608C189.276 113.608 187.116 112.284 186.234 110.829L181.103 113.939ZM251.819 128L248.869 128.542L249.32 131H251.819V128ZM240.683 67.328V64.328H237.083L237.733 67.8696L240.683 67.328ZM258.091 67.328L261.064 66.9234L260.711 64.328H258.091V67.328ZM263.979 110.592L261.007 110.997L262.208 119.824L266.591 112.068L263.979 110.592ZM288.427 67.328V64.328H286.677L285.816 65.8521L288.427 67.328ZM306.987 67.328L309.556 68.8779L312.301 64.328H306.987V67.328ZM270.379 128V131H272.073L272.948 129.55L270.379 128ZM254.77 127.458L243.634 66.7864L237.733 67.8696L248.869 128.542L254.77 127.458ZM240.683 70.328H258.091V64.328H240.683V70.328ZM255.119 67.7325L261.007 110.997L266.952 110.187L261.064 66.9234L255.119 67.7325ZM266.591 112.068L291.039 68.8039L285.816 65.8521L261.368 109.116L266.591 112.068ZM288.427 70.328H306.987V64.328H288.427V70.328ZM304.419 65.7781L267.811 126.45L272.948 129.55L309.556 68.8779L304.419 65.7781ZM270.379 125H251.819V131H270.379V125ZM306.87 126.464L305.529 129.147L305.541 129.153L305.553 129.159L306.87 126.464ZM298.806 117.376L295.984 118.392L295.996 118.427L296.009 118.461L298.806 117.376ZM298.678 100.608L295.743 99.9865L295.742 99.9918L298.678 100.608ZM306.358 82.048L303.901 80.3276L306.358 82.048ZM319.286 70.272L320.717 72.9091L320.734 72.8998L320.751 72.8903L319.286 70.272ZM344.246 67.2L345.136 64.3348L344.246 67.2ZM351.158 71.296L349.127 73.5038L353.082 77.1426L354.104 71.8661L351.158 71.296ZM351.926 67.328V64.328H349.451L348.981 66.7579L351.926 67.328ZM369.206 67.328L372.142 67.9473L372.905 64.328H369.206V67.328ZM356.406 128V131H358.84L359.342 128.619L356.406 128ZM341.558 128L338.559 127.932L338.489 131H341.558V128ZM341.686 122.368L344.686 122.436L344.824 116.365L339.918 119.945L341.686 122.368ZM331.83 127.616L332.779 130.462L332.8 130.455L332.821 130.448L331.83 127.616ZM342.71 111.104L344.601 113.434L345.429 112.761L345.647 111.716L342.71 111.104ZM348.342 84.096L351.279 84.7084L351.553 83.3944L350.756 82.3144L348.342 84.096ZM316.214 100.608L319.145 101.25L319.147 101.242L316.214 100.608ZM316.854 113.28L314.521 115.165L314.542 115.192L314.564 115.218L316.854 113.28ZM320.438 126.28C315.592 126.28 311.538 125.407 308.188 123.769L305.553 129.159C309.883 131.276 314.874 132.28 320.438 132.28V126.28ZM308.212 123.781C305.172 122.261 302.975 119.829 301.603 116.291L296.009 118.461C297.88 123.285 301.059 126.912 305.529 129.147L308.212 123.781ZM301.629 116.36C300.359 112.831 300.22 107.87 301.614 101.224L295.742 99.9918C294.236 107.17 294.182 113.387 295.984 118.392L301.629 116.36ZM301.613 101.23C303.081 94.2985 305.502 88.5023 308.816 83.7684L303.901 80.3276C300.046 85.8337 297.348 92.4108 295.743 99.9865L301.613 101.23ZM308.816 83.7684C312.158 78.9941 316.127 75.3983 320.717 72.9091L317.856 67.6349C312.376 70.6071 307.727 74.8619 303.901 80.3276L308.816 83.7684ZM320.751 72.8903C325.342 70.3222 330.215 69.048 335.414 69.048V63.048C329.18 63.048 323.3 64.5898 317.822 67.6537L320.751 72.8903ZM335.414 69.048C338.616 69.048 341.245 69.4097 343.357 70.0652L345.136 64.3348C342.298 63.4543 339.04 63.048 335.414 63.048V69.048ZM343.357 70.0652C345.359 70.6865 347.282 71.8062 349.127 73.5038L353.19 69.0882C350.768 66.8605 348.083 65.2495 345.136 64.3348L343.357 70.0652ZM354.104 71.8661L354.872 67.8981L348.981 66.7579L348.213 70.7259L354.104 71.8661ZM351.926 70.328H369.206V64.328H351.926V70.328ZM366.271 66.7087L353.471 127.381L359.342 128.619L372.142 67.9473L366.271 66.7087ZM356.406 125H341.558V131H356.406V125ZM344.558 128.068L344.686 122.436L338.687 122.3L338.559 127.932L344.558 128.068ZM339.918 119.945C336.979 122.089 333.953 123.694 330.839 124.784L332.821 130.448C336.534 129.148 340.079 127.255 343.455 124.791L339.918 119.945ZM330.882 124.77C327.918 125.758 324.45 126.28 320.438 126.28V132.28C324.96 132.28 329.087 131.693 332.779 130.462L330.882 124.77ZM327.862 119.608C333.986 119.608 339.591 117.498 344.601 113.434L340.82 108.774C336.784 112.049 332.491 113.608 327.862 113.608V119.608ZM345.647 111.716L351.279 84.7084L345.406 83.4836L339.774 110.492L345.647 111.716ZM350.756 82.3144C347.499 77.9014 342.857 75.72 337.206 75.72V81.72C341.113 81.72 343.895 83.1226 345.929 85.8776L350.756 82.3144ZM337.206 75.72C331.036 75.72 325.774 77.8318 321.665 82.1155C317.641 86.3114 314.926 92.3774 313.282 99.9736L319.147 101.242C320.66 94.2466 323.022 89.3686 325.996 86.2685C328.885 83.2562 332.54 81.72 337.206 81.72V75.72ZM313.284 99.9657C312.57 103.223 312.229 106.123 312.354 108.599C312.478 111.054 313.075 113.376 314.521 115.165L319.188 111.395C318.841 110.966 318.436 110.066 318.347 108.297C318.258 106.549 318.493 104.222 319.145 101.25L313.284 99.9657ZM314.564 115.218C317.35 118.51 322.231 119.608 327.862 119.608V113.608C322.571 113.608 320.113 112.487 319.145 111.342L314.564 115.218ZM367.263 128L364.328 127.381L363.564 131H367.263V128ZM380.063 67.328V64.328H377.63L377.128 66.7087L380.063 67.328ZM396.063 67.328L399.052 67.5936L399.342 64.328H396.063V67.328ZM395.551 73.088L392.563 72.8224L392.019 78.9471L397.181 75.6067L395.551 73.088ZM405.919 68.224L406.886 71.0639L406.904 71.058L406.921 71.0519L405.919 68.224ZM436.511 89.088L433.576 88.4683L433.576 88.47L436.511 89.088ZM428.319 128V131H430.754L431.255 128.618L428.319 128ZM411.039 128L408.105 127.377L407.336 131H411.039V128ZM419.103 89.984L422.038 90.6065L422.04 90.5959L419.103 89.984ZM418.591 81.28L416.134 83.0004L418.591 81.28ZM401.311 80.512L400.169 77.738L401.311 80.512ZM393.631 84.992L391.746 82.6582L390.917 83.3283L390.696 84.3718L393.631 84.992ZM384.543 128V131H386.976L387.479 128.62L384.543 128ZM370.199 128.619L382.999 67.9473L377.128 66.7087L364.328 127.381L370.199 128.619ZM380.063 70.328H396.063V64.328H380.063V70.328ZM393.075 67.0624L392.563 72.8224L398.54 73.3536L399.052 67.5936L393.075 67.0624ZM397.181 75.6067C399.835 73.8894 403.059 72.367 406.886 71.0639L404.953 65.384C400.759 66.8117 397.07 68.5319 393.922 70.5693L397.181 75.6067ZM406.921 71.0519C410.708 69.7106 414.509 69.048 418.335 69.048V63.048C413.8 63.048 409.323 63.8361 404.918 65.3961L406.921 71.0519ZM418.335 69.048C425.625 69.048 429.845 70.8792 432.044 73.6661C434.26 76.4756 435.124 81.1381 433.576 88.4683L439.447 89.7077C441.142 81.6779 440.597 74.8204 436.755 69.9499C432.895 65.0568 426.406 63.048 418.335 63.048V69.048ZM433.576 88.47L425.384 127.382L431.255 128.618L439.447 89.706L433.576 88.47ZM428.319 125H411.039V131H428.319V125ZM413.974 128.623L422.038 90.6065L416.169 89.3615L408.105 127.377L413.974 128.623ZM422.04 90.5959C422.914 86.4035 423.017 82.3709 421.049 79.5596L416.134 83.0004C416.555 83.6024 417 85.3725 416.166 89.3721L422.04 90.5959ZM421.049 79.5596C419.952 77.9922 418.308 77.0482 416.542 76.4966C414.782 75.9466 412.702 75.72 410.399 75.72V81.72C412.363 81.72 413.782 81.92 414.753 82.2234C415.718 82.5251 416.036 82.8612 416.134 83.0004L421.049 79.5596ZM410.399 75.72C406.853 75.72 403.435 76.3931 400.169 77.738L402.454 83.286C404.99 82.2415 407.631 81.72 410.399 81.72V75.72ZM400.169 77.738C397.027 79.0319 394.211 80.6672 391.746 82.6582L395.516 87.3258C397.489 85.7328 399.793 84.3815 402.454 83.286L400.169 77.738ZM390.696 84.3718L381.608 127.38L387.479 128.62L396.567 85.6122L390.696 84.3718ZM384.543 125H367.263V131H384.543V125ZM498.635 126.464L497.294 129.147L497.306 129.153L497.318 129.159L498.635 126.464ZM490.571 117.376L487.749 118.392L487.761 118.427L487.774 118.461L490.571 117.376ZM490.443 100.608L487.508 99.9865L487.507 99.9918L490.443 100.608ZM498.123 82.048L495.666 80.3276L498.123 82.048ZM511.051 70.272L512.482 72.9091L512.499 72.8998L512.516 72.8903L511.051 70.272ZM536.011 67.2L536.901 64.3348H536.901L536.011 67.2ZM542.923 71.296L540.892 73.5038L544.847 77.1426L545.869 71.8661L542.923 71.296ZM543.691 67.328V64.328H541.216L540.746 66.7579L543.691 67.328ZM560.971 67.328L563.907 67.9473L564.67 64.328H560.971V67.328ZM548.171 128V131H550.605L551.107 128.619L548.171 128ZM533.323 128L530.324 127.932L530.254 131H533.323V128ZM533.451 122.368L536.451 122.436L536.589 116.365L531.683 119.945L533.451 122.368ZM523.595 127.616L524.544 130.462L524.565 130.455L524.586 130.448L523.595 127.616ZM534.475 111.104L536.366 113.434L537.194 112.761L537.412 111.716L534.475 111.104ZM540.107 84.096L543.044 84.7084L543.318 83.3944L542.521 82.3144L540.107 84.096ZM507.979 100.608L510.91 101.25L510.912 101.242L507.979 100.608ZM508.619 113.28L506.286 115.165L506.307 115.192L506.329 115.218L508.619 113.28ZM512.203 126.28C507.357 126.28 503.303 125.407 499.953 123.769L497.318 129.159C501.648 131.276 506.639 132.28 512.203 132.28V126.28ZM499.977 123.781C496.937 122.261 494.74 119.829 493.368 116.291L487.774 118.461C489.645 123.285 492.824 126.912 497.294 129.147L499.977 123.781ZM493.394 116.36C492.124 112.831 491.985 107.87 493.379 101.224L487.507 99.9918C486.001 107.17 485.947 113.387 487.749 118.392L493.394 116.36ZM493.378 101.23C494.846 94.2985 497.267 88.5023 500.581 83.7684L495.666 80.3276C491.811 85.8337 489.113 92.4108 487.508 99.9865L493.378 101.23ZM500.581 83.7684C503.923 78.9941 507.892 75.3983 512.482 72.9091L509.621 67.6349C504.141 70.6071 499.492 74.8619 495.666 80.3276L500.581 83.7684ZM512.516 72.8903C517.107 70.3222 521.98 69.048 527.179 69.048V63.048C520.944 63.048 515.065 64.5898 509.587 67.6537L512.516 72.8903ZM527.179 69.048C530.381 69.048 533.01 69.4097 535.122 70.0652L536.901 64.3348C534.063 63.4543 530.805 63.048 527.179 63.048V69.048ZM535.122 70.0652C537.124 70.6865 539.047 71.8062 540.892 73.5038L544.955 69.0882C542.533 66.8605 539.848 65.2495 536.901 64.3348L535.122 70.0652ZM545.869 71.8661L546.637 67.8981L540.746 66.7579L539.978 70.7259L545.869 71.8661ZM543.691 70.328H560.971V64.328H543.691V70.328ZM558.036 66.7087L545.236 127.381L551.107 128.619L563.907 67.9473L558.036 66.7087ZM548.171 125H533.323V131H548.171V125ZM536.323 128.068L536.451 122.436L530.452 122.3L530.324 127.932L536.323 128.068ZM531.683 119.945C528.744 122.089 525.718 123.694 522.604 124.784L524.586 130.448C528.299 129.148 531.844 127.255 535.22 124.791L531.683 119.945ZM522.647 124.77C519.682 125.758 516.215 126.28 512.203 126.28V132.28C516.725 132.28 520.852 131.693 524.544 130.462L522.647 124.77ZM519.627 119.608C525.751 119.608 531.356 117.498 536.366 113.434L532.585 108.774C528.549 112.049 524.256 113.608 519.627 113.608V119.608ZM537.412 111.716L543.044 84.7084L537.171 83.4836L531.539 110.492L537.412 111.716ZM542.521 82.3144C539.264 77.9014 534.622 75.72 528.971 75.72V81.72C532.878 81.72 535.66 83.1226 537.694 85.8776L542.521 82.3144ZM528.971 75.72C522.801 75.72 517.539 77.8318 513.43 82.1155C509.406 86.3114 506.691 92.3774 505.047 99.9736L510.912 101.242C512.425 94.2466 514.787 89.3686 517.761 86.2685C520.65 83.2562 524.305 81.72 528.971 81.72V75.72ZM505.049 99.9657C504.335 103.223 503.994 106.123 504.119 108.599C504.243 111.054 504.84 113.376 506.286 115.165L510.953 111.395C510.606 110.966 510.201 110.066 510.112 108.297C510.023 106.549 510.258 104.222 510.91 101.25L505.049 99.9657ZM506.329 115.218C509.115 118.51 513.996 119.608 519.627 119.608V113.608C514.336 113.608 511.878 112.487 510.91 111.342L506.329 115.218ZM574.772 150.272L575.012 147.282L574.955 147.277L574.897 147.275L574.772 150.272ZM568.628 149.76L569 146.783L568.944 146.776L568.888 146.771L568.628 149.76ZM563.892 149.12L560.959 148.493L560.332 151.425L563.264 152.053L563.892 149.12ZM566.708 135.936L567.57 133.063L564.454 132.128L563.775 135.309L566.708 135.936ZM573.236 137.088L573.62 134.113L573.573 134.107L573.525 134.102L573.236 137.088ZM595.508 135.168L594.404 132.379L595.508 135.168ZM602.932 126.592L605.869 127.204L605.872 127.192L605.874 127.18L602.932 126.592ZM603.572 123.392L606.514 123.98L607.831 117.395L602.048 120.808L603.572 123.392ZM571.444 125.184L570.103 127.867L570.126 127.879L570.15 127.89L571.444 125.184ZM562.996 115.968L560.211 117.082L560.215 117.092L560.219 117.102L562.996 115.968ZM562.484 99.2L559.544 98.6028L559.543 98.6107L559.541 98.6186L562.484 99.2ZM575.028 74.496L577.039 76.7228L577.047 76.7152L577.056 76.7075L575.028 74.496ZM608.564 67.84L607.296 70.5585L607.313 70.5664L607.33 70.5741L608.564 67.84ZM615.732 72.96L613.57 75.0393L616.834 78.4337L618.531 74.0412L615.732 72.96ZM617.908 67.328V64.328H615.851L615.11 66.2468L617.908 67.328ZM632.756 67.328L635.692 67.947L636.455 64.328H632.756V67.328ZM620.852 123.776L623.784 124.411L623.786 124.403L623.788 124.395L620.852 123.776ZM614.452 137.472L612.095 135.616L612.073 135.644L612.052 135.672L614.452 137.472ZM601.396 147.072L600.26 144.295L601.396 147.072ZM599.604 114.176L600.522 117.032L600.568 117.017L600.613 117.001L599.604 114.176ZM606.26 110.72L607.994 113.168L608.951 112.49L609.195 111.344L606.26 110.72ZM611.892 84.224L614.827 84.8477L615.126 83.439L614.214 82.3243L611.892 84.224ZM606.644 80.128L605.303 82.8113L605.375 82.8472L605.448 82.8792L606.644 80.128ZM586.804 84.096L584.527 82.1436L584.523 82.1482L586.804 84.096ZM580.148 99.072L577.221 98.4171L577.22 98.4212L580.148 99.072ZM580.66 111.872L578.219 113.616L578.234 113.637L578.25 113.658L580.66 111.872ZM580.02 147.528C578.766 147.528 577.104 147.449 575.012 147.282L574.533 153.262C576.707 153.436 578.544 153.528 580.02 153.528V147.528ZM574.897 147.275C572.932 147.193 570.967 147.029 569 146.783L568.256 152.737C570.386 153.003 572.516 153.181 574.647 153.269L574.897 147.275ZM568.888 146.771C566.984 146.606 565.544 146.406 564.521 146.187L563.264 152.053C564.631 152.346 566.347 152.573 568.368 152.749L568.888 146.771ZM566.826 149.747L569.642 136.563L563.775 135.309L560.959 148.493L566.826 149.747ZM565.846 138.809C567.807 139.398 570.193 139.807 572.947 140.074L573.525 134.102C570.989 133.857 569.023 133.498 567.57 133.063L565.846 138.809ZM572.852 140.063C575.577 140.415 577.974 140.6 580.02 140.6V134.6C578.312 134.6 576.187 134.444 573.62 134.113L572.852 140.063ZM580.02 140.6C586.483 140.6 592.052 139.763 596.613 137.957L594.404 132.379C590.773 133.816 586.016 134.6 580.02 134.6V140.6ZM596.613 137.957C601.587 135.988 604.797 132.349 605.869 127.204L599.995 125.98C599.361 129.027 597.621 131.105 594.404 132.379L596.613 137.957ZM605.874 127.18L606.514 123.98L600.631 122.804L599.991 126.004L605.874 127.18ZM602.048 120.808C597.373 123.567 591.815 125 585.268 125V131C592.716 131 599.361 129.361 605.097 125.976L602.048 120.808ZM585.268 125C580.331 125 576.182 124.124 572.739 122.478L570.15 127.89C574.557 129.998 579.625 131 585.268 131V125ZM572.786 122.501C569.532 120.874 567.214 118.364 565.774 114.834L560.219 117.102C562.192 121.935 565.506 125.569 570.103 127.867L572.786 122.501ZM565.782 114.854C564.377 111.341 564.119 106.406 565.428 99.7814L559.541 98.6186C558.119 105.818 558.203 112.062 560.211 117.082L565.782 114.854ZM565.424 99.7972C567.559 89.288 571.511 81.7127 577.039 76.7228L573.018 72.2692C566.257 78.3726 561.847 87.2667 559.544 98.6028L565.424 99.7972ZM577.056 76.7075C582.575 71.6476 589.586 69.048 598.324 69.048V63.048C588.289 63.048 579.769 66.0804 573.001 72.2845L577.056 76.7075ZM598.324 69.048C602.356 69.048 605.283 69.6194 607.296 70.5585L609.833 65.1214C606.726 63.6713 602.826 63.048 598.324 63.048V69.048ZM607.33 70.5741C609.606 71.6022 611.685 73.0792 613.57 75.0393L617.895 70.8807C615.513 68.4035 612.813 66.4671 609.799 65.1059L607.33 70.5741ZM618.531 74.0412L620.707 68.4092L615.11 66.2468L612.934 71.8788L618.531 74.0412ZM617.908 70.328H632.756V64.328H617.908V70.328ZM629.821 66.709L617.917 123.157L623.788 124.395L635.692 67.947L629.821 66.709ZM617.92 123.141C616.905 127.828 614.963 131.973 612.095 135.616L616.81 139.328C620.256 134.95 622.581 129.964 623.784 124.411L617.92 123.141ZM612.052 135.672C609.362 139.259 605.486 142.158 600.26 144.295L602.532 149.849C608.571 147.378 613.398 143.877 616.852 139.272L612.052 135.672ZM600.26 144.295C595.106 146.404 588.399 147.528 580.02 147.528V153.528C588.879 153.528 596.423 152.348 602.532 149.849L600.26 144.295ZM591.668 118.328C594.834 118.328 597.794 117.909 600.522 117.032L598.686 111.32C596.636 111.979 594.306 112.328 591.668 112.328V118.328ZM600.613 117.001C603.258 116.057 605.721 114.779 607.994 113.168L604.526 108.272C602.704 109.563 600.73 110.588 598.595 111.351L600.613 117.001ZM609.195 111.344L614.827 84.8477L608.958 83.6003L603.326 110.096L609.195 111.344ZM614.214 82.3243C612.417 80.1273 610.296 78.4444 607.841 77.3768L605.448 82.8792C606.918 83.5182 608.296 84.566 609.57 86.1237L614.214 82.3243ZM607.986 77.4447C605.586 76.2447 602.794 75.72 599.732 75.72V81.72C602.132 81.72 603.948 82.1339 605.303 82.8113L607.986 77.4447ZM599.732 75.72C593.479 75.72 588.27 77.776 584.527 82.1436L589.082 86.0484C591.482 83.248 594.892 81.72 599.732 81.72V75.72ZM584.523 82.1482C581.109 86.1473 578.734 91.6525 577.221 98.4171L583.076 99.7269C584.464 93.5208 586.527 89.042 589.086 86.0438L584.523 82.1482ZM577.22 98.4212C576.505 101.639 576.155 104.517 576.255 107C576.353 109.466 576.905 111.775 578.219 113.616L583.102 110.128C582.709 109.579 582.322 108.561 582.25 106.76C582.179 104.976 582.427 102.649 583.077 99.7228L577.22 98.4212ZM578.25 113.658C580.884 117.213 585.927 118.328 591.668 118.328V112.328C586.146 112.328 583.85 111.139 583.071 110.086L578.25 113.658ZM645.149 125.824L643.808 128.507L643.818 128.512L643.827 128.517L645.149 125.824ZM635.293 115.328L632.501 116.425L632.513 116.455L632.526 116.485L635.293 115.328ZM634.653 97.536L631.718 96.918L631.716 96.926L631.714 96.934L634.653 97.536ZM641.053 80.768L638.502 79.1905L641.053 80.768ZM652.957 69.888L651.616 67.2047L651.607 67.2092L651.598 67.2138L652.957 69.888ZM692.125 73.472L689.775 75.3362L689.793 75.3585L689.811 75.3805L692.125 73.472ZM695.581 92.672L692.648 92.0413L692.647 92.0493L692.645 92.0574L695.581 92.672ZM693.277 103.68V106.68H695.715L696.214 104.295L693.277 103.68ZM649.373 103.68V100.68H646.426L646.374 103.627L649.373 103.68ZM653.213 113.664L651.531 116.148L651.549 116.16L651.567 116.172L653.213 113.664ZM687.645 113.152L690.582 113.764L691.684 108.476L686.613 110.335L687.645 113.152ZM685.085 125.44L686.239 128.209L687.7 127.601L688.022 126.052L685.085 125.44ZM674.589 128.256L674.138 125.29L674.107 125.295L674.075 125.3L674.589 128.256ZM651.677 93.056L648.745 92.4207L647.958 96.056H651.677V93.056ZM680.477 93.056V96.056H682.956L683.423 93.6225L680.477 93.056ZM681.117 89.728L678.187 89.0848L678.179 89.123L678.171 89.1615L681.117 89.728ZM679.837 81.536L677.485 83.3981L677.505 83.4226L677.525 83.4466L679.837 81.536ZM662.045 126.28C655.818 126.28 650.662 125.188 646.471 123.131L643.827 128.517C649.024 131.068 655.131 132.28 662.045 132.28V126.28ZM646.491 123.141C642.517 121.154 639.743 118.192 638.061 114.171L632.526 116.485C634.769 121.851 638.566 125.886 643.808 128.507L646.491 123.141ZM638.086 114.231C636.491 110.171 636.213 104.875 637.592 98.138L631.714 96.934C630.193 104.363 630.342 110.928 632.501 116.425L638.086 114.231ZM637.589 98.154C638.897 91.9419 640.919 86.6909 643.605 82.3455L638.502 79.1905C635.385 84.2317 633.141 90.1594 631.718 96.918L637.589 98.154ZM643.605 82.3455C646.21 78.1316 649.761 74.879 654.317 72.5622L651.598 67.2138C646.085 70.017 641.699 74.0177 638.502 79.1905L643.605 82.3455ZM654.299 72.5713C658.885 70.2782 664.791 69.048 672.157 69.048V63.048C664.163 63.048 657.27 64.3778 651.616 67.2047L654.299 72.5713ZM672.157 69.048C681.087 69.048 686.653 71.3998 689.775 75.3362L694.476 71.6078C689.747 65.6456 682.001 63.048 672.157 63.048V69.048ZM689.811 75.3805C693.077 79.342 694.223 84.7213 692.648 92.0413L698.514 93.3027C700.354 84.7507 699.195 77.33 694.44 71.5635L689.811 75.3805ZM692.645 92.0574L690.341 103.065L696.214 104.295L698.518 93.2866L692.645 92.0574ZM693.277 100.68H649.373V106.68H693.277V100.68ZM646.374 103.627C646.281 108.945 647.67 113.532 651.531 116.148L654.896 111.18C653.467 110.212 652.296 108.143 652.373 103.733L646.374 103.627ZM651.567 116.172C653.413 117.384 655.815 118.152 658.548 118.634C661.316 119.123 664.628 119.352 668.445 119.352V113.352C664.839 113.352 661.901 113.133 659.591 112.726C657.247 112.312 655.744 111.736 654.859 111.156L651.567 116.172ZM668.445 119.352C671.872 119.352 675.412 119.036 679.062 118.413L678.053 112.499C674.705 113.07 671.504 113.352 668.445 113.352V119.352ZM679.062 118.413C682.69 117.794 685.905 116.986 688.678 115.969L686.613 110.335C684.266 111.196 681.422 111.924 678.053 112.499L679.062 118.413ZM684.708 112.54L682.148 124.828L688.022 126.052L690.582 113.764L684.708 112.54ZM683.932 122.671C681.123 123.841 677.867 124.723 674.138 125.29L675.041 131.222C679.163 130.595 682.904 129.599 686.239 128.209L683.932 122.671ZM674.075 125.3C670.338 125.95 666.33 126.28 662.045 126.28V132.28C666.636 132.28 670.99 131.927 675.103 131.212L674.075 125.3ZM651.677 96.056H680.477V90.056H651.677V96.056ZM683.423 93.6225L684.063 90.2945L678.171 89.1615L677.531 92.4895L683.423 93.6225ZM684.048 90.3712C684.929 86.3585 684.572 82.557 682.15 79.6254L677.525 83.4466C678.345 84.4404 678.842 86.1002 678.187 89.0848L684.048 90.3712ZM682.19 79.6739C679.661 76.48 675.153 75.464 670.109 75.464V81.464C674.793 81.464 676.771 82.496 677.485 83.3981L682.19 79.6739ZM670.109 75.464C664.083 75.464 659.017 76.6622 655.503 79.6271L659.372 84.2129C661.319 82.5698 664.701 81.464 670.109 81.464V75.464ZM655.503 79.6271C652.078 82.517 649.932 86.9437 648.745 92.4207L654.609 93.6913C655.641 88.9283 657.336 85.931 659.372 84.2129L655.503 79.6271Z" fill="black" mask="url(#path-3-outside-2_627_83)"/>
</g>
<g filter="url(#filter2_d_627_83)">
<mask id="path-5-outside-3_627_83" maskUnits="userSpaceOnUse" x="12.9829" y="9" width="151" height="148" fill="black">
<rect fill="white" x="12.9829" y="9" width="151" height="148"/>
<path d="M19.1649 154L103.205 12.32H135.765L159.745 154H130.045L123.665 119.9H71.5249L51.2849 154H19.1649ZM80.9849 97.02H124.325L114.645 40.04L80.9849 97.02Z"/>
</mask>
<path d="M19.1649 154L103.205 12.32H135.765L159.745 154H130.045L123.665 119.9H71.5249L51.2849 154H19.1649ZM80.9849 97.02H124.325L114.645 40.04L80.9849 97.02Z" fill="url(#paint2_linear_627_83)"/>
<path d="M19.1649 154L16.5847 152.469L13.8974 157H19.1649V154ZM103.205 12.32V9.31999H101.496L100.625 10.7895L103.205 12.32ZM135.765 12.32L138.723 11.8193L138.3 9.31999H135.765V12.32ZM159.745 154V157H163.295L162.703 153.499L159.745 154ZM130.045 154L127.096 154.552L127.554 157H130.045V154ZM123.665 119.9L126.614 119.348L126.156 116.9H123.665V119.9ZM71.5249 119.9V116.9H69.8169L68.9452 118.369L71.5249 119.9ZM51.2849 154V157H52.9929L53.8647 155.531L51.2849 154ZM80.9849 97.02L78.402 95.4941L75.7284 100.02H80.9849V97.02ZM124.325 97.02V100.02H127.878L127.283 96.5175L124.325 97.02ZM114.645 40.04L117.603 39.5375L116.23 31.4584L112.062 38.5141L114.645 40.04ZM21.7452 155.531L105.785 13.8505L100.625 10.7895L16.5847 152.469L21.7452 155.531ZM103.205 15.32H135.765V9.31999H103.205V15.32ZM132.807 12.8206L156.787 154.501L162.703 153.499L138.723 11.8193L132.807 12.8206ZM159.745 151H130.045V157H159.745V151ZM132.994 153.448L126.614 119.348L120.716 120.452L127.096 154.552L132.994 153.448ZM123.665 116.9H71.5249V122.9H123.665V116.9ZM68.9452 118.369L48.7051 152.469L53.8647 155.531L74.1047 121.431L68.9452 118.369ZM51.2849 151H19.1649V157H51.2849V151ZM80.9849 100.02H124.325V94.02H80.9849V100.02ZM127.283 96.5175L117.603 39.5375L111.687 40.5425L121.367 97.5225L127.283 96.5175ZM112.062 38.5141L78.402 95.4941L83.5679 98.5459L117.228 41.5659L112.062 38.5141Z" fill="black" mask="url(#path-5-outside-3_627_83)"/>
</g>
<path fill-rule="evenodd" clip-rule="evenodd" d="M913.442 308.632C916.22 305.066 916.823 300.075 914.992 295.85C913.159 291.61 909.221 288.901 904.899 288.888L816.395 288.705L782.748 218.933L816.151 149.298L904.659 149.479C908.988 149.49 912.909 146.786 914.729 142.567C916.543 138.33 915.926 133.349 913.129 129.762C888.514 98.2102 852.552 80.0747 814.471 80.0002C762.318 79.8964 717.389 113.448 697.242 161.631C694.779 161.399 692.267 161.259 689.68 161.238L193.564 161.631C193.461 161.63 193.671 161.638 193.564 161.631C158.819 161.561 129.938 183.532 130 221.031C130.069 258.528 158.822 275.746 193.564 275.812C193.418 275.822 193.709 275.818 193.564 275.812H697.408C694.948 276.084 699.933 275.811 697.408 275.812C717.71 324.111 762.764 357.89 814.958 358C853.036 358.068 888.943 340.083 913.442 308.632ZM189.352 244.652C176.55 244.625 166.168 233.411 166.139 219.601C166.11 205.795 176.467 194.619 189.262 194.648C202.058 194.679 212.445 205.888 212.475 219.699C212.502 233.507 202.145 244.683 189.352 244.652Z" fill="url(#paint3_linear_627_83)"/>
<path fill-rule="evenodd" clip-rule="evenodd" d="M913.442 308.632C916.22 305.066 916.823 300.075 914.992 295.85C913.159 291.61 909.221 288.901 904.899 288.888L816.395 288.705L782.748 218.933L816.151 149.298L904.659 149.479C908.988 149.49 912.909 146.786 914.729 142.567C916.543 138.33 915.926 133.349 913.129 129.762C888.514 98.2102 852.552 80.0747 814.471 80.0002C762.318 79.8964 717.389 113.448 697.242 161.631C694.779 161.399 692.267 161.259 689.68 161.238L193.564 161.631C193.461 161.63 193.671 161.638 193.564 161.631C158.819 161.561 129.938 183.532 130 221.031C130.069 258.528 158.822 275.746 193.564 275.812C193.418 275.822 193.709 275.818 193.564 275.812H697.408C694.948 276.084 699.933 275.811 697.408 275.812C717.71 324.111 762.764 357.89 814.958 358C853.036 358.068 888.943 340.083 913.442 308.632ZM189.352 244.652C176.55 244.625 166.168 233.411 166.139 219.601C166.11 205.795 176.467 194.619 189.262 194.648C202.058 194.679 212.445 205.888 212.475 219.699C212.502 233.507 202.145 244.683 189.352 244.652Z" fill="url(#paint4_linear_627_83)" style="mix-blend-mode:overlay"/>
<path fill-rule="evenodd" clip-rule="evenodd" d="M913.442 308.632C916.22 305.066 916.823 300.075 914.992 295.85C913.159 291.61 909.221 288.901 904.899 288.888L816.395 288.705L782.748 218.933L816.151 149.298L904.659 149.479C908.988 149.49 912.909 146.786 914.729 142.567C916.543 138.33 915.926 133.349 913.129 129.762C888.514 98.2102 852.552 80.0747 814.471 80.0002C762.318 79.8964 717.389 113.448 697.242 161.631C694.779 161.399 692.267 161.259 689.68 161.238L193.564 161.631C193.461 161.63 193.671 161.638 193.564 161.631C158.819 161.561 129.938 183.532 130 221.031C130.069 258.528 158.822 275.746 193.564 275.812C193.418 275.822 193.709 275.818 193.564 275.812H697.408C694.948 276.084 699.933 275.811 697.408 275.812C717.71 324.111 762.764 357.89 814.958 358C853.036 358.068 888.943 340.083 913.442 308.632ZM189.352 244.652C176.55 244.625 166.168 233.411 166.139 219.601C166.11 205.795 176.467 194.619 189.262 194.648C202.058 194.679 212.445 205.888 212.475 219.699C212.502 233.507 202.145 244.683 189.352 244.652Z" fill="#CDC9C2" style="mix-blend-mode:color"/>
<path d="M193.564 161.631L689.68 161.238C692.267 161.259 694.779 161.399 697.242 161.631C717.389 113.448 762.318 79.8964 814.471 80.0002C852.552 80.0747 888.514 98.2102 913.129 129.762C915.926 133.349 916.543 138.33 914.729 142.567C912.909 146.786 908.988 149.49 904.659 149.479L816.151 149.298L782.748 218.933L816.395 288.705L904.899 288.888C909.221 288.901 913.159 291.61 914.992 295.85C916.823 300.075 916.22 305.066 913.442 308.632C888.943 340.083 853.036 358.068 814.958 358C762.764 357.89 717.71 324.111 697.408 275.812M193.564 161.631C193.461 161.63 193.671 161.638 193.564 161.631ZM193.564 161.631C158.819 161.561 129.938 183.532 130 221.031C130.069 258.528 158.822 275.746 193.564 275.812M193.564 275.812C193.709 275.818 193.418 275.822 193.564 275.812ZM193.564 275.812H697.408M697.408 275.812C699.933 275.811 694.947 276.084 697.408 275.812ZM189.352 244.652C176.55 244.625 166.168 233.411 166.139 219.601C166.11 205.795 176.467 194.619 189.262 194.648C202.058 194.679 212.445 205.888 212.475 219.699C212.502 233.507 202.145 244.683 189.352 244.652Z" stroke="black" stroke-width="3"/>
<g filter="url(#filter3_d_627_83)">
<mask id="path-9-outside-4_627_83" maskUnits="userSpaceOnUse" x="304" y="174" width="279" height="91" fill="black">
<rect fill="white" x="304" y="174" width="279" height="91"/>
<path d="M309.328 260L358.224 177.568H377.168L391.12 260H373.84L370.128 240.16H339.792L328.016 260H309.328ZM345.296 226.848H370.512L364.88 193.696L345.296 226.848ZM416.942 261.28C409.944 261.28 404.782 259.275 401.454 255.264C398.211 251.168 397.4 245.195 399.022 237.344L407.086 199.328H424.366L416.43 236.96C415.576 241.056 415.832 244.043 417.198 245.92C418.563 247.712 421.379 248.608 425.646 248.608C428.632 248.608 431.534 248.011 434.35 246.816C437.166 245.621 439.64 244.128 441.774 242.336L450.862 199.328H468.142L455.342 260H439.342L439.854 254.24C436.867 256.288 433.496 257.995 429.742 259.36C425.987 260.64 421.72 261.28 416.942 261.28ZM490.016 261.28C483.274 261.28 478.538 259.445 475.808 255.776C473.077 252.107 472.394 247.115 473.76 240.8L479.776 212.64H471.2L474.016 199.328H482.592L485.408 186.272L503.712 181.152L499.872 199.328H515.232L511.392 212.64H497.056L491.296 239.648C490.613 242.976 490.784 245.28 491.808 246.56C492.917 247.755 495.306 248.352 498.976 248.352C501.28 248.352 503.84 247.925 506.656 247.072L504.096 258.976C500 260.512 495.306 261.28 490.016 261.28ZM538.82 261.28C527.982 261.28 520.388 258.549 516.036 253.088C511.684 247.541 510.574 239.733 512.708 229.664C514.841 219.595 519.022 211.829 525.252 206.368C531.481 200.821 540.484 198.048 552.26 198.048C563.268 198.048 570.948 200.821 575.3 206.368C579.652 211.829 580.761 219.595 578.628 229.664C576.494 239.733 572.356 247.541 566.212 253.088C560.068 258.549 550.937 261.28 538.82 261.28ZM542.02 246.56C547.566 246.56 551.79 245.323 554.692 242.848C557.593 240.288 559.726 235.893 561.092 229.664C562.372 223.435 562.201 219.083 560.58 216.608C558.958 214.048 555.161 212.768 549.188 212.768C543.726 212.768 539.502 214.048 536.516 216.608C533.614 219.083 531.524 223.435 530.244 229.664C528.878 235.893 529.006 240.288 530.628 242.848C532.249 245.323 536.046 246.56 542.02 246.56Z"/>
</mask>
<path d="M309.328 260L358.224 177.568H377.168L391.12 260H373.84L370.128 240.16H339.792L328.016 260H309.328ZM345.296 226.848H370.512L364.88 193.696L345.296 226.848ZM416.942 261.28C409.944 261.28 404.782 259.275 401.454 255.264C398.211 251.168 397.4 245.195 399.022 237.344L407.086 199.328H424.366L416.43 236.96C415.576 241.056 415.832 244.043 417.198 245.92C418.563 247.712 421.379 248.608 425.646 248.608C428.632 248.608 431.534 248.011 434.35 246.816C437.166 245.621 439.64 244.128 441.774 242.336L450.862 199.328H468.142L455.342 260H439.342L439.854 254.24C436.867 256.288 433.496 257.995 429.742 259.36C425.987 260.64 421.72 261.28 416.942 261.28ZM490.016 261.28C483.274 261.28 478.538 259.445 475.808 255.776C473.077 252.107 472.394 247.115 473.76 240.8L479.776 212.64H471.2L474.016 199.328H482.592L485.408 186.272L503.712 181.152L499.872 199.328H515.232L511.392 212.64H497.056L491.296 239.648C490.613 242.976 490.784 245.28 491.808 246.56C492.917 247.755 495.306 248.352 498.976 248.352C501.28 248.352 503.84 247.925 506.656 247.072L504.096 258.976C500 260.512 495.306 261.28 490.016 261.28ZM538.82 261.28C527.982 261.28 520.388 258.549 516.036 253.088C511.684 247.541 510.574 239.733 512.708 229.664C514.841 219.595 519.022 211.829 525.252 206.368C531.481 200.821 540.484 198.048 552.26 198.048C563.268 198.048 570.948 200.821 575.3 206.368C579.652 211.829 580.761 219.595 578.628 229.664C576.494 239.733 572.356 247.541 566.212 253.088C560.068 258.549 550.937 261.28 538.82 261.28ZM542.02 246.56C547.566 246.56 551.79 245.323 554.692 242.848C557.593 240.288 559.726 235.893 561.092 229.664C562.372 223.435 562.201 219.083 560.58 216.608C558.958 214.048 555.161 212.768 549.188 212.768C543.726 212.768 539.502 214.048 536.516 216.608C533.614 219.083 531.524 223.435 530.244 229.664C528.878 235.893 529.006 240.288 530.628 242.848C532.249 245.323 536.046 246.56 542.02 246.56Z" fill="url(#paint5_linear_627_83)"/>
<path d="M309.328 260L306.747 258.469L304.06 263H309.328V260ZM358.224 177.568V174.568H356.515L355.643 176.037L358.224 177.568ZM377.168 177.568L380.126 177.067L379.703 174.568H377.168V177.568ZM391.12 260V263H394.67L394.078 259.499L391.12 260ZM373.84 260L370.891 260.552L371.349 263H373.84V260ZM370.128 240.16L373.077 239.608L372.618 237.16H370.128V240.16ZM339.792 240.16V237.16H338.084L337.212 238.629L339.792 240.16ZM328.016 260V263H329.724L330.596 261.531L328.016 260ZM345.296 226.848L342.713 225.322L340.039 229.848H345.296V226.848ZM370.512 226.848V229.848H374.064L373.469 226.346L370.512 226.848ZM364.88 193.696L367.837 193.194L366.465 185.114L362.297 192.17L364.88 193.696ZM311.908 261.53L360.804 179.098L355.643 176.037L306.747 258.469L311.908 261.53ZM358.224 180.568H377.168V174.568H358.224V180.568ZM374.21 178.069L388.162 260.501L394.078 259.499L380.126 177.067L374.21 178.069ZM391.12 257H373.84V263H391.12V257ZM376.789 259.448L373.077 239.608L367.179 240.712L370.891 260.552L376.789 259.448ZM370.128 237.16H339.792V243.16H370.128V237.16ZM337.212 238.629L325.436 258.469L330.596 261.531L342.372 241.691L337.212 238.629ZM328.016 257H309.328V263H328.016V257ZM345.296 229.848H370.512V223.848H345.296V229.848ZM373.469 226.346L367.837 193.194L361.922 194.198L367.554 227.35L373.469 226.346ZM362.297 192.17L342.713 225.322L347.879 228.374L367.463 195.222L362.297 192.17ZM401.454 255.264L399.102 257.126L399.123 257.153L399.145 257.18L401.454 255.264ZM399.022 237.344L396.087 236.721L396.085 236.729L396.084 236.737L399.022 237.344ZM407.086 199.328V196.328H404.655L404.151 198.705L407.086 199.328ZM424.366 199.328L427.301 199.947L428.064 196.328H424.366V199.328ZM416.43 236.96L413.494 236.341L413.493 236.348L416.43 236.96ZM417.198 245.92L414.772 247.685L414.791 247.712L414.811 247.738L417.198 245.92ZM434.35 246.816L433.178 244.054H433.178L434.35 246.816ZM441.774 242.336L443.703 244.633L444.495 243.968L444.709 242.956L441.774 242.336ZM450.862 199.328V196.328H448.429L447.927 198.708L450.862 199.328ZM468.142 199.328L471.077 199.947L471.841 196.328H468.142V199.328ZM455.342 260V263H457.775L458.277 260.619L455.342 260ZM439.342 260L436.353 259.734L436.063 263H439.342V260ZM439.854 254.24L442.842 254.506L443.405 248.167L438.157 251.766L439.854 254.24ZM429.742 259.36L430.71 262.2L430.738 262.19L430.767 262.179L429.742 259.36ZM416.942 258.28C410.512 258.28 406.341 256.456 403.762 253.348L399.145 257.18C403.222 262.093 409.377 264.28 416.942 264.28V258.28ZM403.806 253.402C401.354 250.305 400.421 245.4 401.96 237.951L396.084 236.737C394.38 244.989 395.068 252.031 399.102 257.126L403.806 253.402ZM401.956 237.967L410.02 199.951L404.151 198.705L396.087 236.721L401.956 237.967ZM407.086 202.328H424.366V196.328H407.086V202.328ZM421.43 198.709L413.494 236.341L419.365 237.579L427.301 199.947L421.43 198.709ZM413.493 236.348C412.595 240.657 412.631 244.741 414.772 247.685L419.624 244.155C419.034 243.345 418.558 241.455 419.367 237.572L413.493 236.348ZM414.811 247.738C417.09 250.729 421.221 251.608 425.646 251.608V245.608C421.537 245.608 420.036 244.695 419.584 244.102L414.811 247.738ZM425.646 251.608C429.045 251.608 432.344 250.926 435.521 249.578L433.178 244.054C430.723 245.096 428.22 245.608 425.646 245.608V251.608ZM435.521 249.578C438.585 248.278 441.321 246.635 443.703 244.633L439.844 240.039C437.96 241.621 435.746 242.965 433.178 244.054L435.521 249.578ZM444.709 242.956L453.797 199.948L447.927 198.708L438.839 241.716L444.709 242.956ZM450.862 202.328H468.142V196.328H450.862V202.328ZM465.206 198.709L452.406 259.381L458.277 260.619L471.077 199.947L465.206 198.709ZM455.342 257H439.342V263H455.342V257ZM442.33 260.266L442.842 254.506L436.865 253.974L436.353 259.734L442.33 260.266ZM438.157 251.766C435.399 253.657 432.258 255.253 428.716 256.541L430.767 262.179C434.735 260.736 438.335 258.919 441.55 256.714L438.157 251.766ZM428.774 256.52C425.387 257.675 421.456 258.28 416.942 258.28V264.28C421.984 264.28 426.587 263.605 430.71 262.2L428.774 256.52ZM475.808 255.776L473.401 257.567L475.808 255.776ZM473.76 240.8L476.692 241.434L476.694 241.427L473.76 240.8ZM479.776 212.64L482.71 213.267L483.484 209.64H479.776V212.64ZM471.2 212.64L468.265 212.019L467.499 215.64H471.2V212.64ZM474.016 199.328V196.328H471.584L471.081 198.707L474.016 199.328ZM482.592 199.328V202.328H485.014L485.524 199.961L482.592 199.328ZM485.408 186.272L484.6 183.383L482.857 183.87L482.475 185.639L485.408 186.272ZM503.712 181.152L506.647 181.772L507.67 176.93L502.904 178.263L503.712 181.152ZM499.872 199.328L496.936 198.708L496.172 202.328H499.872V199.328ZM515.232 199.328L518.114 200.159L519.219 196.328H515.232V199.328ZM511.392 212.64V215.64H513.649L514.274 213.471L511.392 212.64ZM497.056 212.64V209.64H494.628L494.122 212.014L497.056 212.64ZM491.296 239.648L488.362 239.022L488.359 239.034L488.357 239.045L491.296 239.648ZM491.808 246.56L489.465 248.434L489.534 248.52L489.609 248.601L491.808 246.56ZM506.656 247.072L509.589 247.703L510.659 242.724L505.786 244.201L506.656 247.072ZM504.096 258.976L505.149 261.785L506.684 261.209L507.029 259.607L504.096 258.976ZM490.016 258.28C483.753 258.28 480.147 256.583 478.214 253.985L473.401 257.567C476.929 262.308 482.796 264.28 490.016 264.28V258.28ZM478.214 253.985C476.186 251.26 475.432 247.263 476.692 241.434L470.827 240.166C469.357 246.966 469.968 252.953 473.401 257.567L478.214 253.985ZM476.694 241.427L482.71 213.267L476.842 212.013L470.826 240.173L476.694 241.427ZM479.776 209.64H471.2V215.64H479.776V209.64ZM474.135 213.261L476.951 199.949L471.081 198.707L468.265 212.019L474.135 213.261ZM474.016 202.328H482.592V196.328H474.016V202.328ZM485.524 199.961L488.34 186.905L482.475 185.639L479.659 198.695L485.524 199.961ZM486.216 189.161L504.52 184.041L502.904 178.263L484.6 183.383L486.216 189.161ZM500.776 180.532L496.936 198.708L502.807 199.948L506.647 181.772L500.776 180.532ZM499.872 202.328H515.232V196.328H499.872V202.328ZM512.349 198.497L508.509 211.809L514.274 213.471L518.114 200.159L512.349 198.497ZM511.392 209.64H497.056V215.64H511.392V209.64ZM494.122 212.014L488.362 239.022L494.23 240.274L499.99 213.266L494.122 212.014ZM488.357 239.045C487.983 240.866 487.807 242.569 487.92 244.094C488.032 245.611 488.449 247.164 489.465 248.434L494.15 244.686C494.142 244.676 493.962 244.437 493.904 243.65C493.846 242.871 493.925 241.758 494.235 240.251L488.357 239.045ZM489.609 248.601C490.713 249.79 492.214 250.442 493.704 250.814C495.222 251.194 497.003 251.352 498.976 251.352V245.352C497.279 245.352 496.031 245.211 495.159 244.994C494.731 244.886 494.438 244.771 494.247 244.674C494.059 244.578 494.002 244.514 494.006 244.519L489.609 248.601ZM498.976 251.352C501.643 251.352 504.502 250.859 507.526 249.943L505.786 244.201C503.178 244.991 500.916 245.352 498.976 245.352V251.352ZM503.723 246.441L501.163 258.345L507.029 259.607L509.589 247.703L503.723 246.441ZM503.042 256.167C499.345 257.553 495.02 258.28 490.016 258.28V264.28C495.593 264.28 500.654 263.471 505.149 261.785L503.042 256.167ZM516.036 253.088L513.675 254.94L513.682 254.949L513.69 254.958L516.036 253.088ZM512.708 229.664L509.773 229.042L512.708 229.664ZM525.252 206.368L527.229 208.624L527.238 208.616L527.247 208.609L525.252 206.368ZM575.3 206.368L572.939 208.22L572.946 208.229L572.954 208.238L575.3 206.368ZM578.628 229.664L575.693 229.042L578.628 229.664ZM566.212 253.088L568.205 255.33L568.213 255.323L568.222 255.315L566.212 253.088ZM554.692 242.848L556.639 245.13L556.658 245.114L556.677 245.098L554.692 242.848ZM561.092 229.664L564.022 230.306L564.026 230.287L564.03 230.268L561.092 229.664ZM560.58 216.608L558.045 218.213L558.058 218.233L558.07 218.252L560.58 216.608ZM536.516 216.608L538.463 218.891L538.468 218.886L536.516 216.608ZM530.244 229.664L533.174 230.306L533.178 230.287L533.182 230.268L530.244 229.664ZM530.628 242.848L528.093 244.453L528.106 244.473L528.118 244.492L530.628 242.848ZM538.82 258.28C528.386 258.28 521.909 255.644 518.382 251.218L513.69 254.958C518.867 261.454 527.579 264.28 538.82 264.28V258.28ZM518.396 251.236C514.807 246.662 513.606 239.897 515.643 230.286L509.773 229.042C507.542 239.57 508.56 248.42 513.675 254.94L518.396 251.236ZM515.643 230.286C517.675 220.694 521.595 213.564 527.229 208.624L523.274 204.112C516.45 210.095 512.007 218.495 509.773 229.042L515.643 230.286ZM527.247 208.609C532.737 203.72 540.918 201.048 552.26 201.048V195.048C540.049 195.048 530.225 197.923 523.257 204.127L527.247 208.609ZM552.26 201.048C562.869 201.048 569.415 203.728 572.939 208.22L577.66 204.516C572.48 197.914 563.666 195.048 552.26 195.048V201.048ZM572.954 208.238C576.523 212.717 577.731 219.423 575.693 229.042L581.563 230.286C583.791 219.766 582.781 210.942 577.646 204.498L572.954 208.238ZM575.693 229.042C573.658 238.645 569.772 245.832 564.201 250.861L568.222 255.315C574.94 249.25 579.33 240.822 581.563 230.286L575.693 229.042ZM564.219 250.846C558.834 255.632 550.543 258.28 538.82 258.28V264.28C551.331 264.28 561.301 261.466 568.205 255.33L564.219 250.846ZM542.02 249.56C547.963 249.56 552.994 248.239 556.639 245.13L552.745 240.565C550.587 242.406 547.17 243.56 542.02 243.56V249.56ZM556.677 245.098C560.277 241.921 562.601 236.79 564.022 230.306L558.161 229.022C556.852 234.996 554.909 238.655 552.707 240.598L556.677 245.098ZM564.03 230.268C564.699 227.014 565.019 224.111 564.921 221.61C564.824 219.131 564.307 216.822 563.089 214.964L558.07 218.252C558.474 218.868 558.853 219.973 558.926 221.846C558.999 223.697 558.764 226.085 558.153 229.06L564.03 230.268ZM563.114 215.003C560.58 211.002 555.25 209.768 549.188 209.768V215.768C555.072 215.768 557.336 217.094 558.045 218.213L563.114 215.003ZM549.188 209.768C543.287 209.768 538.272 211.151 534.563 214.33L538.468 218.886C540.732 216.945 544.166 215.768 549.188 215.768V209.768ZM534.569 214.325C530.918 217.439 528.637 222.576 527.305 229.06L533.182 230.268C534.41 224.294 536.311 220.726 538.463 218.89L534.569 214.325ZM527.313 229.022C526.599 232.279 526.243 235.194 526.317 237.719C526.39 240.227 526.893 242.558 528.093 244.453L533.162 241.243C532.741 240.578 532.369 239.432 532.314 237.545C532.26 235.675 532.523 233.279 533.174 230.306L527.313 229.022ZM528.118 244.492C529.415 246.472 531.441 247.728 533.762 248.484C536.07 249.236 538.858 249.56 542.02 249.56V243.56C539.208 243.56 537.11 243.265 535.621 242.78C534.145 242.299 533.461 241.699 533.137 241.204L528.118 244.492Z" fill="black" mask="url(#path-9-outside-4_627_83)"/>
</g>
<defs>
<filter id="filter0_d_627_83" x="435.964" y="18.8719" width="61.624" height="115.128" filterUnits="userSpaceOnUse" color-interpolation-filters="sRGB">
<feFlood flood-opacity="0" result="BackgroundImageFix"/>
<feColorMatrix in="SourceAlpha" type="matrix" values="0 0 0 0 0 0 0 0 0 0 0 0 0 0 0 0 0 0 127 0" result="hardAlpha"/>
<feOffset dx="-5" dy="5"/>
<feGaussianBlur stdDeviation="2"/>
<feComposite in2="hardAlpha" operator="out"/>
<feColorMatrix type="matrix" values="0 0 0 0 0 0 0 0 0 0 0 0 0 0 0 0 0 0 0.35 0"/>
<feBlend mode="normal" in2="BackgroundImageFix" result="effect1_dropShadow_627_83"/>
<feBlend mode="normal" in="SourceGraphic" in2="effect1_dropShadow_627_83" result="shape"/>
</filter>
<filter id="filter1_d_627_83" x="154.316" y="41.728" width="543.825" height="117.8" filterUnits="userSpaceOnUse" color-interpolation-filters="sRGB">
<feFlood flood-opacity="0" result="BackgroundImageFix"/>
<feColorMatrix in="SourceAlpha" type="matrix" values="0 0 0 0 0 0 0 0 0 0 0 0 0 0 0 0 0 0 127 0" result="hardAlpha"/>
<feOffset dx="-5" dy="5"/>
<feGaussianBlur stdDeviation="2"/>
<feComposite in2="hardAlpha" operator="out"/>
<feColorMatrix type="matrix" values="0 0 0 0 0 0 0 0 0 0 0 0 0 0 0 0 0 0 0.35 0"/>
<feBlend mode="normal" in2="BackgroundImageFix" result="effect1_dropShadow_627_83"/>
<feBlend mode="normal" in="SourceGraphic" in2="effect1_dropShadow_627_83" result="shape"/>
</filter>
<filter id="filter2_d_627_83" x="0.164948" y="12.3199" width="159.58" height="150.68" filterUnits="userSpaceOnUse" color-interpolation-filters="sRGB">
<feFlood flood-opacity="0" result="BackgroundImageFix"/>
<feColorMatrix in="SourceAlpha" type="matrix" values="0 0 0 0 0 0 0 0 0 0 0 0 0 0 0 0 0 0 127 0" result="hardAlpha"/>
<feOffset dx="-15" dy="5"/>
<feGaussianBlur stdDeviation="2"/>
<feComposite in2="hardAlpha" operator="out"/>
<feColorMatrix type="matrix" values="0 0 0 0 0 0 0 0 0 0 0 0 0 0 0 0 0 0 0.5 0"/>
<feBlend mode="normal" in2="BackgroundImageFix" result="effect1_dropShadow_627_83"/>
<feBlend mode="normal" in="SourceGraphic" in2="effect1_dropShadow_627_83" result="shape"/>
</filter>
<filter id="filter3_d_627_83" x="300.328" y="177.568" width="281.5" height="92.712" filterUnits="userSpaceOnUse" color-interpolation-filters="sRGB">
<feFlood flood-opacity="0" result="BackgroundImageFix"/>
<feColorMatrix in="SourceAlpha" type="matrix" values="0 0 0 0 0 0 0 0 0 0 0 0 0 0 0 0 0 0 127 0" result="hardAlpha"/>
<feOffset dx="-5" dy="5"/>
<feGaussianBlur stdDeviation="2"/>
<feComposite in2="hardAlpha" operator="out"/>
<feColorMatrix type="matrix" values="0 0 0 0 0 0 0 0 0 0 0 0 0 0 0 0 0 0 0.35 0"/>
<feBlend mode="normal" in2="BackgroundImageFix" result="effect1_dropShadow_627_83"/>
<feBlend mode="normal" in="SourceGraphic" in2="effect1_dropShadow_627_83" result="shape"/>
</filter>
<linearGradient id="paint0_linear_627_83" x1="466.983" y1="0" x2="466.983" y2="127" gradientUnits="userSpaceOnUse">
<stop offset="0.331" stop-color="#FF2424"/>
<stop offset="0.681" stop-color="#F6C9C9"/>
<stop offset="1" stop-color="#FF2424"/>
</linearGradient>
<linearGradient id="paint1_linear_627_83" x1="430.983" y1="47" x2="430.983" y2="127" gradientUnits="userSpaceOnUse">
<stop stop-color="#FF2424"/>
<stop offset="0.5" stop-color="#F6C9C9"/>
<stop offset="1" stop-color="#FF2424"/>
</linearGradient>
<linearGradient id="paint2_linear_627_83" x1="101.983" y1="12" x2="101.983" y2="140" gradientUnits="userSpaceOnUse">
<stop offset="0.206" stop-color="#FF2424"/>
<stop offset="0.591" stop-color="#F6C9C9"/>
<stop offset="1" stop-color="#FF2424"/>
</linearGradient>
<linearGradient id="paint3_linear_627_83" x1="149.33" y1="253.872" x2="700.286" y2="-136.949" gradientUnits="userSpaceOnUse">
<stop stop-color="#748286"/>
<stop offset="0.0748449" stop-color="#757A7B"/>
<stop offset="0.176579" stop-color="#748286"/>
<stop offset="0.446433" stop-color="#748286"/>
<stop offset="0.54259" stop-color="#848B8A"/>
<stop offset="0.827984" stop-color="#9EA1A1"/>
<stop offset="1" stop-color="#748286"/>
</linearGradient>
<linearGradient id="paint4_linear_627_83" x1="438.705" y1="219" x2="418.036" y2="55.662" gradientUnits="userSpaceOnUse">
<stop stop-color="white" stop-opacity="0"/>
<stop offset="1" stop-color="white"/>
</linearGradient>
<linearGradient id="paint5_linear_627_83" x1="448.065" y1="182" x2="448.065" y2="255.043" gradientUnits="userSpaceOnUse">
<stop stop-color="#FF2424"/>
<stop offset="0.5" stop-color="#F6C9C9"/>
<stop offset="1" stop-color="#FF2424"/>
</linearGradient>
</defs>
</svg>
